<svg xmlns="http://www.w3.org/2000/svg" width="800" height="800" viewBox="0 0 800 800"><rect width="100%" height="100%" fill="#324191"/><path fill="#FFFFFF" d="M210.91 399.88h28.8v35.1q-6.6 4.86-14.07 7.11-7.47 2.25-15.99 2.25-10.62 0-19.23-3.3-8.61-3.3-14.7-9.18t-9.39-14.04q-3.3-8.16-3.3-17.82 0-9.78 3.18-17.94 3.18-8.16 9.03-14.04 5.85-5.88 14.19-9.12 8.34-3.24 18.72-3.24 5.28 0 9.87.84 4.59.84 8.52 2.31 3.93 1.47 7.17 3.57 3.24 2.1 5.94 4.62l-4.62 7.32q-1.08 1.74-2.82 2.13-1.74.39-3.78-.87l-3.96-2.28q-1.98-1.14-4.41-1.98-2.43-.84-5.46-1.38-3.03-.54-6.99-.54-6.42 0-11.61 2.16-5.19 2.16-8.85 6.18-3.66 4.02-5.64 9.66-1.98 5.64-1.98 12.6 0 7.44 2.13 13.29 2.13 5.85 6 9.9 3.87 4.05 9.33 6.18t12.18 2.13q4.8 0 8.58-1.02 3.78-1.02 7.38-2.76V412h-10.92q-1.56 0-2.43-.87-.87-.87-.87-2.13v-9.12Zm127.14.12q0 9.54-3.15 17.67-3.15 8.13-8.91 14.07-5.76 5.94-13.86 9.27-8.1 3.33-18 3.33-9.84 0-17.94-3.33-8.1-3.33-13.89-9.27-5.79-5.94-8.97-14.07-3.18-8.13-3.18-17.67 0-9.54 3.18-17.67 3.18-8.13 8.97-14.07 5.79-5.94 13.89-9.27 8.1-3.33 17.94-3.33 6.6 0 12.42 1.53t10.68 4.32q4.86 2.79 8.73 6.78t6.57 8.91q2.7 4.92 4.11 10.68 1.41 5.76 1.41 12.12Zm-16.5 0q0-7.14-1.92-12.81-1.92-5.67-5.46-9.63-3.54-3.96-8.61-6.06-5.07-2.1-11.43-2.1-6.36 0-11.43 2.1-5.07 2.1-8.64 6.06-3.57 3.96-5.49 9.63-1.92 5.67-1.92 12.81 0 7.14 1.92 12.81 1.92 5.67 5.49 9.6 3.57 3.93 8.64 6.03t11.43 2.1q6.36 0 11.43-2.1 5.07-2.1 8.61-6.03 3.54-3.93 5.46-9.6t1.92-12.81Zm80.94-35.22-4.02 7.62q-.72 1.26-1.53 1.83-.81.57-2.01.57-1.26 0-2.73-.93t-3.51-2.07q-2.04-1.14-4.77-2.07-2.73-.93-6.45-.93-3.36 0-5.88.81t-4.23 2.25q-1.71 1.44-2.55 3.45-.84 2.01-.84 4.41 0 3.06 1.71 5.1 1.71 2.04 4.53 3.48 2.82 1.44 6.42 2.58 3.6 1.14 7.38 2.43 3.78 1.29 7.38 3t6.42 4.32q2.82 2.61 4.53 6.39 1.71 3.78 1.71 9.18 0 5.88-2.01 11.01t-5.88 8.94q-3.87 3.81-9.45 6-5.58 2.19-12.78 2.19-4.14 0-8.16-.81-4.02-.81-7.71-2.31-3.69-1.5-6.93-3.6-3.24-2.1-5.76-4.68l4.74-7.74q.6-.84 1.56-1.41.96-.57 2.04-.57 1.5 0 3.24 1.23 1.74 1.23 4.14 2.73 2.4 1.5 5.61 2.73 3.21 1.23 7.71 1.23 6.9 0 10.68-3.27 3.78-3.27 3.78-9.39 0-3.42-1.71-5.58t-4.53-3.63q-2.82-1.47-6.42-2.49-3.6-1.02-7.32-2.22-3.72-1.2-7.32-2.88t-6.42-4.38q-2.82-2.7-4.53-6.75-1.71-4.05-1.71-9.99 0-4.74 1.89-9.24t5.49-7.98q3.6-3.48 8.88-5.58 5.28-2.1 12.12-2.1 7.68 0 14.16 2.4t11.04 6.72Zm65.82 0-4.02 7.62q-.72 1.26-1.53 1.83-.81.57-2.01.57-1.26 0-2.73-.93t-3.51-2.07q-2.04-1.14-4.77-2.07-2.73-.93-6.45-.93-3.36 0-5.88.81t-4.23 2.25q-1.71 1.44-2.55 3.45-.84 2.01-.84 4.41 0 3.06 1.71 5.1 1.71 2.04 4.53 3.48 2.82 1.44 6.42 2.58 3.6 1.14 7.38 2.43 3.78 1.29 7.38 3t6.42 4.32q2.82 2.61 4.53 6.39 1.71 3.78 1.71 9.18 0 5.88-2.01 11.01t-5.88 8.94q-3.87 3.81-9.45 6-5.58 2.19-12.78 2.19-4.14 0-8.16-.81-4.02-.81-7.71-2.31-3.69-1.5-6.93-3.6-3.24-2.1-5.76-4.68l4.74-7.74q.6-.84 1.56-1.41.96-.57 2.04-.57 1.5 0 3.24 1.23 1.74 1.23 4.14 2.73 2.4 1.5 5.61 2.73 3.21 1.23 7.71 1.23 6.9 0 10.68-3.27 3.78-3.27 3.78-9.39 0-3.42-1.71-5.58t-4.53-3.63q-2.82-1.47-6.42-2.49-3.6-1.02-7.32-2.22-3.72-1.2-7.32-2.88t-6.42-4.38q-2.82-2.7-4.53-6.75-1.71-4.05-1.71-9.99 0-4.74 1.89-9.24t5.49-7.98q3.6-3.48 8.88-5.58 5.28-2.1 12.12-2.1 7.68 0 14.16 2.4t11.04 6.72Zm72.54-8.16h16.2v86.76h-16.2v-37.92h-40.74v37.92h-16.2v-86.76h16.2v37.32h40.74v-37.32Zm96.12 0v13.26h-26.16v73.5h-16.14v-73.5h-26.16v-13.26h68.46Z"/></svg>